PathFileType	4	(X/Y/Z)	C:\Users\willi\Desktop\Data_PaperCallum_v2\17_Akif\Gait05\marker_experimental_temp.trc
DataRate	CameraRate	NumFrames	NumMarkers	Units	OrigDataRate	OrigDataStartFrame	OrigNumFrames
100.000000	100.000000	4	27	mm	100.000000	159	213
Frame#	Time	C7			T10			Clav			Sternum			Right_Back			PCL_CRAN			PCL_RECHTS			PCL_LINKS			RCL_UL_CRAN			RCL_UL_POST			RCL_UL_ANT			RCL_LL_CRAN			RCL_LL_POST			RCL_LL_ANT			Right_Heel			Right_Toe			Right_M5			LCL_UL_CRAN			LCL_UL_POST			LCL_UL_ANT			LCL_LL_CRAN			LCL_LL_POST			LCL_LL_ANT			Left_Heel			Left_Toe			Left_M5			*26			
		X1	Y1	Z1	X2	Y2	Z2	X3	Y3	Z3	X4	Y4	Z4	X5	Y5	Z5	X6	Y6	Z6	X7	Y7	Z7	X8	Y8	Z8	X9	Y9	Z9	X10	Y10	Z10	X11	Y11	Z11	X12	Y12	Z12	X13	Y13	Z13	X14	Y14	Z14	X15	Y15	Z15	X16	Y16	Z16	X17	Y17	Z17	X18	Y18	Z18	X19	Y19	Z19	X20	Y20	Z20	X21	Y21	Z21	X22	Y22	Z22	X23	Y23	Z23	X24	Y24	Z24	X25	Y25	Z25	X26	Y26	Z26	X27	Y27	Z27	

160	1.59	-368.6834411621095	1399.110107421875	160.0933074951172	-341.0982971191407	1182.55712890625	166.9761199951172	-515.3781127929689	1334.074096679688	165.0712585449219	-581.3350219726564	1173.165771484375	181.4389801025391	-338.8920288085938	1336.718994140625	48.60125350952151	-355.4066467285157	1017.769409179688	158.3480072021485	-345.6822509765626	958.213134765625	134.9104156494141	-344.4320983886719	958.577880859375	185.3699493408203	-526.3677978515625	734.4622802734375	-22.91199684143063	-532.4229125976563	670.10546875	-20.49502372741696	-576.7293701171875	693.301513671875	-26.7686786651611	-564.173828125	392.8830261230468	-7.716201782226528	-531.2728881835938	336.3536682128906	-4.234369277954069	-581.5702514648438	329.4752502441406	-7.054261684417689	-466.7710876464844	55.33249282836911	101.7951965332032	-645.9480590820313	43.21242141723629	37.00045013427739	-591.7579956054688	32.76295471191403	-2.988379478454553	-447.0616760253907	745.9451293945313	329.6353454589844	-428.6932983398438	683.9114379882813	318.0643005371094	-477.5497131347657	688.1607666015625	325.5336608886719	-362.5695190429688	372.9270629882813	289.9480895996094	-328.3320922851563	317.20263671875	292.6657104492188	-377.6201477050781	309.563720703125	284.1058959960938	-241.1056213378906	38.53083419799803	205.1844329833985	-447.3844909667969	26.64666175842282	208.629623413086	-400.7297058105469	7.804039955139135	272.4651794433594	nan	nan	nan	
161	1.6	-381.9439086914064	1397.5703125	159.3192596435547	-354.0258178710938	1181.088134765625	165.7747192382813	-528.6133422851564	1332.225219726563	164.0320434570313	-594.0909423828126	1171.135864257813	181.0872344970703	-351.7330017089844	1335.003662109375	48.3366394042969	-368.2034606933594	1016.0810546875	156.0132141113282	-358.6677551269532	956.516845703125	132.5902099609375	-356.9395751953126	956.921630859375	183.0177764892578	-540.3521118164063	732.665771484375	-23.25165748596188	-546.4468994140625	668.3543701171875	-20.82223510742184	-590.8773803710938	691.6685180664063	-26.61120414733883	-584.1235961914063	389.6726684570312	-7.170914649963343	-554.9081420898438	331.0280761718749	-4.363151073455777	-605.5682983398438	327.5017700195312	-7.186621665954553	-512.1018676757813	45.07845687866208	98.9431076049805	-691.2417602539063	44.89522171020504	33.20588302612309	-637.5645751953125	31.16425132751461	-6.634443283081016	-455.6857910156251	745.2361450195313	328.8791809082031	-436.6302185058594	683.3826904296875	317.2387390136719	-485.5091552734376	687.000732421875	324.7781066894532	-366.421142578125	373.2688293457031	289.0957641601563	-331.4579772949219	317.9556884765625	291.9090881347656	-380.6319885253906	309.5838928222656	283.2108459472656	-241.2808532714844	39.72422790527342	204.4695739746094	-447.3836059570313	26.59200477600095	208.725082397461	-400.4794006347656	7.931311607360815	272.3367309570313	nan	nan	nan	
162	1.61	-395.2676391601564	1395.827758789063	158.4564971923828	-367.0615539550782	1179.414794921875	164.4660034179688	-541.9377441406251	1330.197875976563	162.93359375	-606.9606933593751	1168.9296875	180.6456756591797	-364.6763916015626	1333.093872070313	47.96975708007815	-381.1244506835938	1014.181762695313	153.6123352050782	-371.7858581542969	954.6053466796875	130.225814819336	-369.5852966308594	955.0659790039063	180.6223449707032	-553.9998168945313	730.372314453125	-23.5877475738525	-559.8099365234375	666.0523071289063	-21.15228843688961	-604.4076538085938	689.3036499023438	-26.56249427795407	-603.7372436523438	386.3918762207031	-6.643290519714318	-578.2470703125	325.9668884277343	-4.540018081665004	-629.0889282226563	325.7034912109374	-7.341635704040489	-557.1289672851563	36.39060592651364	95.70393371582034	-735.7529907226563	47.97256469726558	29.47041893005376	-682.8461303710938	31.04214477539058	-10.28901576995845	-464.4978332519532	744.4595947265625	328.1485290527344	-444.8141174316407	682.790771484375	316.4940490722656	-493.6986389160157	685.8094482421875	324.0935058593751	-370.6353759765625	373.5637817382813	288.3122863769531	-334.9573974609375	318.6959838867188	291.2172546386719	-384.0217590332031	309.587890625	282.4510498046875	-241.4844360351563	41.0742950439453	203.894287109375	-447.3658752441406	26.53894424438474	208.8254699707032	-400.225341796875	8.043600082397436	272.2204895019531	nan	nan	nan	
163	1.62	-408.6565856933595	1393.906982421875	157.5050048828125	-380.2147827148438	1177.559448242188	163.0631561279297	-555.3541259765626	1328.022216796875	161.7736206054688	-619.9558105468751	1166.580322265625	180.1042785644532	-377.7251281738282	1331.012084960938	47.49736404418947	-394.1824951171876	1012.098205566406	151.1745300292969	-385.0455017089844	952.5081176757813	127.8381500244141	-382.3860778808594	953.0336303710938	178.2055969238282	-567.3973999023438	727.6510620117188	-23.95429992675778	-572.6142578125	663.2626953125	-21.54490852355953	-617.4164428710938	686.2770385742188	-26.66892814636227	-623.0564575195313	383.1257934570312	-6.15195417404171	-601.2877197265625	321.2721862792968	-4.792499542236292	-652.1218872070313	324.1191101074218	-7.515383243560751	-601.3255004882813	29.28818321228024	92.16854095458989	-779.0654296875	52.38517379760737	25.95986938476567	-727.1904907226563	32.38381958007808	-13.80441379547115	-473.5289916992188	743.6182250976563	327.4375305175782	-453.2646789550782	682.1439208984375	315.8240051269531	-502.1389770507813	684.59130859375	323.4831848144532	-375.2115783691406	373.8155212402344	287.60986328125	-338.82275390625	319.4341125488281	290.6083984375	-387.7731323242188	309.5923767089844	281.8503723144531	-241.7299499511719	42.60620498657225	203.4783325195313	-447.3330688476563	26.4906368255615	208.9299468994141	-399.9791259765625	8.138852119445776	272.1224060058594	nan	nan	nan	
